<?xml version="1.0" encoding="UTF-8" standalone="no"?>
<svg
   xmlns:dc="http://purl.org/dc/elements/1.1/"
   xmlns:cc="http://creativecommons.org/ns#"
   xmlns:rdf="http://www.w3.org/1999/02/22-rdf-syntax-ns#"
   xmlns:svg="http://www.w3.org/2000/svg"
   xmlns="http://www.w3.org/2000/svg"
   xmlns:sodipodi="http://sodipodi.sourceforge.net/DTD/sodipodi-0.dtd"
   xmlns:inkscape="http://www.inkscape.org/namespaces/inkscape"
   version="1.1"
   x="0px"
   y="0px"
   width="64"
   height="58"
   viewBox="0 0 64 58"
   enable-background="new 0 0 64 64"
   xml:space="preserve"
   id="svg46"
   sodipodi:docname="cat.svg"
   inkscape:version="0.92.1 r"><metadata
     id="metadata52"><rdf:RDF><cc:Work
         rdf:about=""><dc:format>image/svg+xml</dc:format><dc:type
           rdf:resource="http://purl.org/dc/dcmitype/StillImage" /><dc:title /></cc:Work></rdf:RDF></metadata><defs
     id="defs50" /><sodipodi:namedview
     pagecolor="#ffffff"
     bordercolor="#666666"
     borderopacity="1"
     objecttolerance="10"
     gridtolerance="10"
     guidetolerance="10"
     inkscape:pageopacity="0"
     inkscape:pageshadow="2"
     inkscape:window-width="640"
     inkscape:window-height="480"
     id="namedview48"
     showgrid="false"
     fit-margin-top="0"
     fit-margin-left="0"
     fit-margin-right="0"
     fit-margin-bottom="0"
     inkscape:zoom="14.75"
     inkscape:cx="24.184559"
     inkscape:cy="25.032983"
     inkscape:current-layer="svg46" /><g
     id="g4551"
     style="stroke-width:1"
     transform="translate(0,-4.0986917)"><path
       id="path2"
       d="M 13.667,26.898 C 11.814,28.93 10.094,28.352 9.845,25.613 L 8.285,8.479 C 8.036,5.74 9.912,4.356 12.455,5.404 l 10.504,4.328 c 2.542,1.048 3.107,3.567 1.254,5.6 z"
       stroke-miterlimit="10"
       inkscape:connector-curvature="0"
       style="fill:#f1a62f;stroke:#642913;stroke-width:2;stroke-miterlimit:10" /><path
       id="path4"
       d="m 49.415,26.495 c 1.754,2.118 3.484,1.621 3.847,-1.105 L 55.51,8.457 C 55.872,5.731 54.089,4.36 51.548,5.411 l -9.972,4.124 c -2.541,1.051 -3.186,3.644 -1.432,5.762 z"
       stroke-miterlimit="10"
       inkscape:connector-curvature="0"
       style="fill:#f1a62f;stroke:#642913;stroke-width:2;stroke-miterlimit:10" /><ellipse
       id="ellipse6"
       ry="10.997"
       rx="5.316"
       cy="20.753"
       cx="43.683998"
       transform="matrix(0.8248,0.5654,-0.5654,0.8248,19.3845,-21.0618)"
       style="fill:#d27611;stroke-width:1" /><ellipse
       id="ellipse8"
       ry="10.998"
       rx="5.316"
       cy="20.754"
       cx="19.642"
       transform="matrix(0.8286,-0.5599,0.5599,0.8286,-8.2529,14.5562)"
       style="fill:#d27611;stroke-width:1" /><path
       id="path10"
       d="m 54.707,33.605 c 0.002,-0.115 0.01,-0.23 0.01,-0.346 0,-12.202 -10.17,-22.093 -22.717,-22.093 -12.545,0 -22.716,9.891 -22.716,22.093 0,0.115 0.007,0.229 0.009,0.346 -0.944,2.174 -1.46,4.521 -1.46,6.969 0,11.218 10.82,20.313 24.167,20.313 13.346,0 24.168,-9.095 24.168,-20.313 0,-2.448 -0.516,-4.795 -1.461,-6.969 z"
       stroke-miterlimit="10"
       inkscape:connector-curvature="0"
       style="fill:none;stroke:#642913;stroke-width:2.5;stroke-miterlimit:10" /><path
       id="path12"
       d="m 53.772,33.678 c 0.001,-0.109 0.009,-0.221 0.009,-0.33 0,-11.7 -9.751,-21.184 -21.782,-21.184 -12.028,0 -21.78,9.484 -21.78,21.184 0,0.109 0.007,0.219 0.009,0.33 -0.905,2.086 -1.4,4.336 -1.4,6.682 0,10.756 10.375,19.477 23.172,19.477 12.797,0 23.174,-8.721 23.174,-19.477 -10e-4,-2.346 -0.495,-4.596 -1.402,-6.682 z"
       stroke-miterlimit="10"
       inkscape:connector-curvature="0"
       style="fill:#f1a62f;stroke:#f19500;stroke-width:1;stroke-miterlimit:10" /><path
       id="path14"
       d="m 37.316,54.351 c 0,-1.868 -2.38,-3.383 -5.316,-3.383 -2.936,0 -5.317,1.515 -5.317,3.383 0,1.868 2.381,0 5.317,0 2.937,0 5.316,1.868 5.316,0 z"
       inkscape:connector-curvature="0"
       style="fill:#f19500;stroke-width:1" /><path
       id="path16"
       d="m 18.354,34.944 c 0,0 12.773,-8.889 27.293,0"
       stroke-miterlimit="10"
       inkscape:connector-curvature="0"
       style="fill:none;stroke:#f19500;stroke-width:2;stroke-linecap:round;stroke-miterlimit:10" /><line
       id="line18"
       y2="43"
       x2="32"
       y1="38"
       x1="32"
       stroke-miterlimit="10"
       style="stroke:#f19500;stroke-width:2;stroke-miterlimit:10" /><path
       id="path20"
       d="m 31.937,42.255 c 0,2.867 -2.325,5.192 -5.193,5.192 -2.868,0 -5.192,-2.325 -5.192,-5.192 m 20.897,0 c 0,2.867 -2.324,5.192 -5.192,5.192 -2.868,0 -5.193,-2.325 -5.193,-5.192"
       stroke-miterlimit="10"
       inkscape:connector-curvature="0"
       style="fill:none;stroke:#471a03;stroke-width:2;stroke-linecap:round;stroke-miterlimit:10" /><path
       id="path22"
       d="m 36.076,34.904 c 0,1.868 -3.181,3.382 -4.076,3.382 -1.093,0 -4.077,-1.514 -4.077,-3.382 0,-1.867 1.826,-1.177 4.077,-1.177 2.252,0.001 4.076,-0.69 4.076,1.177 z"
       inkscape:connector-curvature="0"
       style="fill:#471a03;stroke-width:1" /><ellipse
       id="ellipse24"
       ry="3.996"
       rx="2.896"
       cy="28.561"
       cx="21.25"
       style="fill:#772603;stroke-width:1" /><ellipse
       id="ellipse26"
       ry="1.597"
       rx="1.063"
       cy="26.964"
       cx="20.417"
       style="fill:#ffffff;stroke-width:1" /><ellipse
       id="ellipse28"
       ry="3.996"
       rx="2.896"
       cy="28.561"
       cx="42.75"
       style="fill:#772603;stroke-width:1" /><ellipse
       id="ellipse30"
       ry="1.597"
       rx="1.063"
       cy="26.964"
       cx="41.917"
       style="fill:#ffffff;stroke-width:1" /><g
       id="g44"
       stroke-miterlimit="10"
       style="stroke:#471a03;stroke-width:2;stroke-linecap:round;stroke-miterlimit:10"><line
         id="line32"
         y2="32.645"
         x2="15.215"
         y1="31.324"
         x1="1"
         style="stroke-width:2" /><line
         id="line34"
         y2="36.232"
         x2="15.021"
         y1="37.321"
         x1="1"
         style="stroke-width:2" /><line
         id="line36"
         y2="39.546"
         x2="15.554"
         y1="42.898"
         x1="1"
         style="stroke-width:2" /><line
         id="line38"
         y2="32.645"
         x2="48.785"
         y1="31.324"
         x1="63"
         style="stroke-width:2" /><line
         id="line40"
         y2="36.232"
         x2="48.979"
         y1="37.321"
         x1="63"
         style="stroke-width:2" /><line
         id="line42"
         y2="39.546"
         x2="48.446"
         y1="42.898"
         x1="63"
         style="stroke-width:2" /></g></g></svg>
