<?xml version="1.0" encoding="UTF-8" standalone="no"?>
<svg
   xmlns:dc="http://purl.org/dc/elements/1.1/"
   xmlns:cc="http://creativecommons.org/ns#"
   xmlns:rdf="http://www.w3.org/1999/02/22-rdf-syntax-ns#"
   xmlns:svg="http://www.w3.org/2000/svg"
   xmlns="http://www.w3.org/2000/svg"
   xmlns:sodipodi="http://sodipodi.sourceforge.net/DTD/sodipodi-0.dtd"
   xmlns:inkscape="http://www.inkscape.org/namespaces/inkscape"
   width="153"
   height="64"
   viewBox="0 0 153 64"
   version="1.1"
   id="svg3"
   sodipodi:docname="gllacy-logo.svg"
   inkscape:version="0.92.1 r">
  <metadata
     id="metadata9">
    <rdf:RDF>
      <cc:Work
         rdf:about="">
        <dc:format>image/svg+xml</dc:format>
        <dc:type
           rdf:resource="http://purl.org/dc/dcmitype/StillImage" />
        <dc:title></dc:title>
      </cc:Work>
    </rdf:RDF>
  </metadata>
  <defs
     id="defs7" />
  <sodipodi:namedview
     pagecolor="#ffffff"
     bordercolor="#666666"
     borderopacity="1"
     objecttolerance="10"
     gridtolerance="10"
     guidetolerance="10"
     inkscape:pageopacity="0"
     inkscape:pageshadow="2"
     inkscape:window-width="640"
     inkscape:window-height="480"
     id="namedview5"
     showgrid="false"
     inkscape:pagecheckerboard="false"
     inkscape:zoom="3.7312253"
     inkscape:cx="-17.92599"
     inkscape:cy="31.625"
     inkscape:current-layer="svg3" />
  <path
     id="Logo"
     d="m 150.37742,45.164813 c -1.74064,-1.876136 -4.2247,-2.103699 -6.99455,-2.103699 h -0.23581 a 13.534455,13.699326 0 0 0 -8.97001,-4.450132 c -3.49728,-0.229586 -6.35805,-0.227564 -8.82813,0.840468 0.0829,-0.676622 0.15189,-1.563614 0.20884,-2.249339 a 4.2706725,4.3226962 0 0 0 1.63373,0.213404 c 3.06561,0 6.2821,-2.613441 6.56189,-8.341975 0.13289,-3.160605 -0.37971,-5.47265 -1.48385,-6.637776 a 2.6609267,2.6933412 0 0 0 -1.94148,-0.876878 c -1.64572,0 -3.18652,1.459441 -4.39058,4.102212 0,-0.289258 -0.007,-0.545141 -0.011,-0.778773 -0.008,-0.483446 -0.015,-0.881935 -0.015,-1.32796 0,-1.117589 -0.053,-1.750722 -1.13612,-1.750722 a 1.5318065,1.5504664 0 0 0 -1.08016,0.485469 2.5570077,2.5881562 0 0 0 -0.60552,1.961092 c 0.027,1.399769 0.032,2.816731 0.016,4.329776 -0.49961,2.270579 -1.4039,4.0567 -2.33718,4.75355 a 17.4544,17.667023 0 0 0 1.11214,-4.302468 c 0.41567,-3.056432 -0.042,-5.702237 -1.22605,-7.079755 a 2.0983651,2.1239266 0 0 0 -1.98445,-0.82732 3.6031926,3.6470853 0 0 0 -2.10836,1.273344 0.94026739,0.95172138 0 0 0 -1.25002,-0.344885 c -2.579,1.033644 -4.21872,4.072882 -4.38659,8.129582 a 8.0487289,8.1467754 0 0 0 1.88453,6.055213 4.3086429,4.3611292 0 0 0 3.15055,1.415951 4.5824296,4.638251 0 0 0 3.65315,-2.188655 4.5754351,4.6311713 0 0 0 3.34939,-2.027845 c -0.1189,2.521405 -0.30975,4.995273 -0.56655,7.383174 a 17.963004,18.181823 0 0 0 -5.18696,6.614514 c -1.98046,3.978822 -1.76263,7.631976 -0.72144,9.344265 a 2.030418,2.0551518 0 0 0 1.67569,1.126693 c 3.0866,0 5.56667,-8.671689 6.77173,-16.197469 a 14.866417,15.047514 0 0 1 8.42643,-1.992445 11.570985,11.711938 0 0 1 6.8047,2.208883 8.4254354,8.5280708 0 0 0 -5.88242,7.173815 5.5736573,5.6415535 0 0 0 1.12213,4.480474 4.182741,4.2336936 0 0 0 3.50727,1.410894 6.0572805,6.131068 0 0 0 4.35061,-2.030878 8.5843116,8.6888824 0 0 0 1.84756,-6.4446 9.1928374,9.3048211 0 0 0 -0.60453,-2.798526 c 3.90496,0.647291 6.25313,4.030403 6.05028,8.857785 a 10.006204,10.128096 0 0 1 -9.88629,9.514179 c -2.99767,0 -5.19595,-0.742363 -6.35205,-2.144154 a 4.5214771,4.576556 0 0 1 -0.87232,-3.814977 c 0.029,-0.145641 0.058,-0.272065 0.0829,-0.382307 a 1.042188,1.0548835 0 0 0 -0.052,-0.961835 0.6424994,0.65032608 0 0 0 -0.53059,-0.2397 1.7136648,1.73454 0 0 0 -0.38569,0.05563 3.4403195,3.4822282 0 0 0 -2.47707,3.230392 c 0,2.970463 3.12756,6.169501 9.99221,6.169501 7.13244,0 12.42532,-4.378323 12.87497,-11.226469 a 9.5085914,9.6244215 0 0 0 -2.574,-7.608714 z M 115.44664,24.392811 a 12.434312,12.585782 0 0 0 -0.57955,5.472651 6.5758764,6.6559813 0 0 0 2.58399,4.977067 1.5118221,1.5302385 0 0 1 -2.03941,-0.340839 6.5848694,6.6650838 0 0 1 -1.285,-4.795017 10.545783,10.674248 0 0 1 1.31997,-5.313862 z m 4.37759,4.791983 a 9.7354147,9.8540078 0 0 1 -1.00722,4.178067 c -1.17008,-0.728204 -1.6637,-2.528484 -1.72465,-3.959606 -0.1259,-2.552758 0.93927,-4.747482 1.78761,-4.994262 a 0.33773685,0.34185104 0 0 1 0.19984,0.127436 c 0.46963,0.503674 0.9013,2.172473 0.74442,4.649376 z m 7.32229,6.169501 a 2.1982872,2.2250659 0 0 1 -1.39291,-0.394444 l 0.0639,-1.038701 c 1.05218,-6.87242 3.10558,-9.78321 3.74508,-9.78321 a 0.3167532,0.32061177 0 0 1 0.24381,0.133504 c 0.45665,0.491537 0.86833,2.185621 0.65649,5.461525 -0.24781,3.523695 -1.48884,5.625371 -3.31941,5.625371 z m -8.3325,19.305481 a 0.42466912,0.42984228 0 0 1 -0.27979,-0.235655 c -0.48462,-0.793944 -0.56056,-3.281972 1.21806,-6.883545 a 15.351039,15.53804 0 0 1 2.14033,-3.250619 c -1.03719,6.713631 -2.49506,10.086628 -3.0786,10.373864 z m 22.60638,-2.810663 a 2.7538543,2.7874008 0 0 1 -2.03541,0.926436 h -0.10592 a 2.4061253,2.4354358 0 0 1 -1.89852,-0.846536 3.8549964,3.9019565 0 0 1 -0.58255,-3.161616 5.9233848,5.9955413 0 0 1 4.94615,-5.056968 7.0195308,7.10504 0 0 1 1.01121,3.380077 6.3330656,6.4102126 0 0 1 -1.33496,4.762652 z M 110.7443,37.487324 c -0.70545,-0.259928 -1.43488,-1.95199 -0.8993,-8.539196 0.28778,-3.749237 0.40669,-5.917664 -0.48462,-6.892648 a 1.6237349,1.6435146 0 0 0 -1.24203,-0.515811 c -2.14033,0 -4.20273,2.636704 -5.63861,5.797309 a 62.759101,63.523609 0 0 1 0.46064,-7.005924 10.81957,10.95137 0 0 0 5.11402,-5.220814 c 1.81758,-3.61472 1.58277,-7.4650958 0.41068,-9.3998918 a 2.0454063,2.0703227 0 0 0 -1.66071,-1.1590571 c -2.71388,0 -5.22493,5.7517959 -6.42799,14.6884689 a 8.7381917,8.844637 0 0 1 -3.613187,0.07788 5.486725,5.5535623 0 0 1 -0.889307,-0.237678 6.808695,6.891636 0 0 0 2.911732,-5.53738 5.9473661,6.0198147 0 0 0 -1.4119,-4.551271 7.2243712,7.3123757 0 0 0 -5.258903,-2.1239265 c -0.118907,0 -0.239813,-0.00607 -0.361718,-0.00607 -4.446536,0 -9.143876,2.4273447 -9.520582,7.0706525 -0.3847,4.079962 3.190514,6.457748 6.646821,8.756646 l 0.699455,0.462206 c 3.303426,2.244283 6.230146,4.578579 5.758513,8.443114 -0.382702,3.169708 -4.330626,5.722465 -8.535349,5.392751 a 7.309305,7.3983442 0 0 1 -5.195952,-2.592202 6.7197643,6.801622 0 0 1 -1.430885,-5.202609 c 0.265793,-1.998513 1.127122,-3.526729 3.090592,-5.471639 a 1.2460292,1.2612078 0 0 0 0.506605,-1.274356 0.77239819,0.78180725 0 0 0 -0.985232,-0.386352 8.4094478,8.5118885 0 0 0 -3.018648,1.24098 7.5870885,7.6795116 0 0 0 -2.286219,5.242053 c -0.236815,4.262012 1.927498,9.665888 8.807138,10.867424 a 12.451299,12.602976 0 0 0 2.089372,0.181039 c 5.601636,0 10.055166,-3.820033 10.360927,-8.887115 0.270789,-4.75355 -3.34939,-7.422618 -6.766727,-9.55767 l -0.374708,-0.228575 c -3.315417,-2.032901 -6.447977,-3.952526 -5.960356,-7.72199 0.3847,-2.88146 3.106579,-4.1719984 5.632611,-4.1719984 0.178861,0 0.357721,0.00607 0.53858,0.018205 2.79782,0.1820509 4.3646,1.8023034 4.405568,4.5644194 a 4.3566056,4.4096761 0 0 1 -1.046185,3.111047 1.4818454,1.4998967 0 0 1 -0.983234,0.505697 0.98123547,0.99318852 0 0 1 -0.832352,-0.666509 3.9319364,3.9798338 0 0 1 -0.06395,-2.205849 l 0.08194,-0.252849 a 1.0771607,1.0902823 0 0 0 0.03897,-1.044769 0.64050096,0.6483033 0 0 0 -0.53958,-0.256894 1.8175838,1.839725 0 0 0 -0.388697,0.0536 3.0286402,3.065534 0 0 0 -2.286218,2.617486 c -0.08593,2.405094 1.340955,5.178335 5.601635,5.753818 a 14.424761,14.600478 0 0 0 4.37059,-0.04046 c -0.271783,2.528484 -0.446647,5.208677 -0.52059,7.980907 -0.03397,1.645537 -0.06095,2.611418 -0.08094,3.337598 -0.02998,1.093317 -0.04596,1.636435 -0.04596,3.110036 0,1.260196 0.183857,1.708244 1.22005,1.708244 0.56956,0 1.54679,-0.483447 1.59875,-2.233157 1.0292,-6.900739 3.84601,-10.715716 4.57244,-10.754149 a 6.6568134,6.7379042 0 0 1 -0.06,2.101676 c -0.0999,0.959813 -0.21983,2.154269 -0.24981,3.590448 -0.1249,5.909572 1.00522,8.911389 3.44931,9.178396 1.21006,0.150698 1.43489,-0.404557 1.48085,-0.631109 a 0.98023625,0.99217712 0 0 0 -0.78639,-1.077134 z m -7.48217,-19.534056 c 0.97424,-6.345484 2.4421,-9.9511019 2.98668,-10.1999047 a 0.77639507,0.78585283 0 0 1 0.29177,0.4126486 8.8610959,8.9690384 0 0 1 -0.81537,6.7500411 8.1676362,8.2671313 0 0 1 -2.46308,3.037215 z M 77.539172,22.343727 77.390288,22.14954 a 0.9732417,0.98509737 0 0 0 -0.82236,-0.291282 c -0.870322,0 -2.298209,0.42074 -2.426109,1.529228 -0.120906,0.773716 -0.249806,2.088527 -0.341734,3.49133 -0.652492,5.293634 -2.198287,8.22263 -3.022645,8.22263 A 0.92328063,0.93452769 0 0 1 70.045011,34.756561 C 68.977842,33.530752 68.862932,29.479109 69.704276,22.720977 l 0.01699,-0.275099 -0.148884,-0.174971 a 0.96624715,0.97801761 0 0 0 -0.775396,-0.257905 c -0.881313,0 -2.328186,0.424785 -2.458085,1.570694 a 39.031589,39.507057 0 0 0 -0.188853,6.904784 c -0.592538,1.921648 -1.920503,5.040786 -4.313639,5.040786 A 2.364158,2.3929573 0 0 1 60.13773,34.733299 7.2253704,7.3133871 0 0 1 58.653886,29.535747 c 0.161874,-3.742156 1.282001,-6.680254 2.552012,-6.680254 a 0.71744101,0.7261806 0 0 1 0.659486,0.289258 c 0.399688,0.576494 0.226823,1.980309 -0.15388,3.0625 l -0.08493,0.228575 a 1.1061382,1.1196127 0 0 0 -0.08793,1.083202 0.75241376,0.76157938 0 0 0 0.8993,0.21745 c 0.745419,-0.141595 2.267233,-0.95071 2.398131,-1.960081 A 5.1819625,5.2450872 0 0 0 63.80887,22.045366 2.9087337,2.9441668 0 0 0 61.583603,21.113873 c -3.247469,0 -5.885414,3.843295 -6.137218,8.940719 -0.01099,0.32668 -0.008,0.643246 0,0.951722 -0.886309,3.507513 -1.612743,4.73231 -1.898521,4.995273 -0.237814,-0.404558 -0.55157,-2.347445 0.432663,-7.575339 l 0.01998,-0.280156 -0.148884,-0.174971 a 1.0991436,1.112533 0 0 0 -0.864327,-0.280156 2.1643137,2.1906785 0 0 0 -2.28422,1.432134 7.6090714,7.7017623 0 0 0 -0.09992,0.882946 l -0.02398,0.318589 c -0.552569,3.13532 -1.662704,4.775801 -2.475071,4.775801 a 0.69945502,0.70797552 0 0 1 -0.440657,-0.28319 c -0.66748,-0.763603 -1.242032,-2.756048 -0.929276,-5.32701 0.408682,-3.454921 1.798599,-5.776069 3.446315,-5.776069 a 1.2040619,1.2187293 0 0 1 1.006216,0.335782 2.2872179,2.31508 0 0 1 -0.07594,1.858942 l -0.04996,0.136538 a 1.2899949,1.3057091 0 0 0 -0.11591,1.244014 0.81736315,0.82731996 0 0 0 0.8993,0.235655 c 0.750415,-0.141595 2.268232,-1.03769 2.398131,-2.054141 a 3.1705297,3.2091519 0 0 0 -0.819361,-2.427344 3.7490789,3.7947488 0 0 0 -2.857774,-1.0741 c -2.824799,0 -6.360044,2.163371 -7.014534,8.293427 -1.058176,3.559094 -2.404127,5.21778 -2.979679,5.21778 -0.761406,0 -1.954477,-2.277659 -2.250246,-7.337661 A 51.546837,52.174762 0 0 0 43.683551,15.11024 c 0.823359,-3.587413 1.375928,-9.4120285 0.02498,-11.1344318 a 1.357942,1.3744839 0 0 0 -1.089152,-0.565369 c -3.943927,0 -7.121451,12.2914668 -7.663029,21.1057618 a 27.204803,27.536202 0 0 0 0.05795,4.082996 c -0.883312,4.233693 -2.547016,6.930069 -3.312419,6.930069 -0.715443,0 -1.837569,-2.159326 -2.120348,-6.958388 a 49.150704,49.74944 0 0 0 5.10802,-12.412834 c 0.785388,-3.422556 1.30898,-8.9811751 0.01799,-10.6277239 A 1.3179731,1.3340282 0 0 0 33.651367,4.9831562 c -3.771062,0 -6.805698,11.7210408 -7.322295,20.1267328 -0.347729,6.077464 1.303984,10.136187 2.8238,11.766553 a 2.9467041,2.9825997 0 0 0 2.082377,1.082191 c 1.840566,0 3.497275,-2.528484 4.570439,-5.165187 0.961251,3.159594 2.597976,5.186426 4.277667,5.186426 1.281002,0 2.658928,-1.251093 3.872983,-3.479194 0.727433,2.08246 2.156319,3.162628 3.391357,3.162628 0.05396,0 0.108915,0 0.169868,-0.0071 1.178082,-0.101139 2.305204,-1.026564 3.255463,-2.635691 0.383701,2.166405 1.214054,3.453909 2.29821,3.453909 1.316974,0 2.427109,-1.866021 3.226486,-3.813965 a 5.5206986,5.5879496 0 0 0 4.897184,3.426601 c 2.062393,0 4.035856,-1.489783 5.535687,-4.1366 0.922281,3.078682 2.590981,3.578311 3.576214,3.578311 0.985232,0 1.943485,-0.720112 2.811809,-2.072346 l -0.02898,0.280156 A 29.285183,29.641924 0 0 0 67.46302,45.47529 c -1.049182,2.968441 -1.023202,6.131068 0.06295,7.691649 a 1.9304959,1.9540124 0 0 0 1.598755,0.921379 c 1.849559,0 4.64538,-2.562871 7.573099,-24.717448 0.459642,-3.218254 0.799377,-6.728802 0.799377,-6.728802 z M 29.590531,24.354378 C 29.95025,18.119136 32.00365,9.7346833 33.036845,8.3278348 c 0.290774,0.889015 0.340735,4.1194062 -0.639501,7.9374172 a 55.048109,55.718685 0 0 1 -2.806813,8.089126 z m 8.734194,-0.49356 c 0.358721,-6.644856 2.571996,-15.6442365 3.659149,-17.017709 0.32075,0.8728327 0.399689,4.299434 -0.655489,8.394567 a 58.031785,58.738706 0 0 1 -3.00366,8.623142 z M 72.566046,39.629455 C 71.451914,47.395947 70.22587,50.659714 69.663308,50.8893 A 0.51659749,0.52289049 0 0 1 69.35255,50.636452 c -0.465637,-0.677634 -0.613522,-2.354524 0.367714,-5.02966 a 35.677202,36.111808 0 0 1 2.845782,-5.977337 z m -13.03884,2.225066 a 1.1411109,1.1550115 0 0 0 -0.670478,-0.320611 0.75740987,0.76663635 0 0 0 -0.659486,0.569414 4.9441478,5.0043755 0 0 1 -0.24381,0.478389 c -0.597535,1.089271 -2.532027,1.645538 -5.751519,1.645538 A 88.031411,89.103776 0 0 1 39.031175,42.71016 C 33.735301,41.799906 27.698005,40.827957 22.73787,40.478015 a 105.17805,106.45929 0 0 0 2.023423,-15.8718 c 0,-0.600768 -0.899299,-0.735283 -1.21905,-0.735283 -0.399688,0 -1.705671,0.16688 -1.78361,2.314068 l -0.132897,2.582088 c -0.465637,2.542644 -1.865546,6.838032 -6.011316,7.043345 -0.09293,0 -0.184856,0.0071 -0.276784,0.0071 v 0 A 5.2439142,5.3077936 0 0 1 11.259813,33.954526 C 9.295344,31.706198 8.4679886,27.513971 9.0465378,22.740194 A 25.230342,25.537688 0 0 1 10.123698,17.891573 C 16.741542,17.737841 23.049627,14.69658 24.584431,10.882615 A 4.1677527,4.2185227 0 0 0 24.389583,6.8886217 C 23.490284,5.5333543 21.674698,4.9305637 19.443437,5.2339818 14.823037,5.840818 10.23661,9.7640138 7.6646145,15.286223 4.7558809,14.453846 2.2528311,11.948624 2.888336,8.5655123 3.8056213,3.6046267 10.315549,1.9833628 12.455881,1.9833628 a 1.8845317,1.9074883 0 0 1 0.626512,0.070798 2.6649236,2.6973867 0 0 0 0.928277,0.171937 1.051181,1.0639861 0 0 0 1.162094,-0.6665084 C 15.335637,0.83037408 14.3564,0.35906467 13.978695,0.17802521 a 2.9187259,2.9542807 0 0 0 -1.151104,-0.1739597 c -2.9167266,0 -11.3341682,2.06122019 -12.64514672,8.69798499 a 6.6728009,6.7540865 0 0 0 0.91628602,5.2814975 9.3317292,9.4454048 0 0 0 5.6615888,3.589436 23.961331,24.253219 0 0 0 -1.223047,5.562665 c -0.5395796,5.026626 0.5375811,9.471701 2.9536986,12.197406 a 8.3724766,8.474467 0 0 0 6.4030103,2.853142 h 0.299767 a 8.4314307,8.5341392 0 0 0 5.81447,-2.656931 47.527969,48.106937 0 0 1 -0.821361,4.843564 q -0.543576,-0.0091 -1.059174,-0.0091 c -5.926383,0 -9.2378023,1.24098 -10.4198813,3.900945 A 4.4045682,4.458223 0 0 0 8.9875838,48.678397 6.2711139,6.3475062 0 0 0 14.20252,51.4749 5.9663513,6.0390312 0 0 0 15.169767,51.395 c 3.218492,-0.582563 5.462743,-3.383111 7.042512,-8.799124 a 111.25132,112.60654 0 0 1 16.312291,2.332273 c 0.974241,0.202279 1.956475,0.416695 2.936712,0.628076 5.336841,1.149954 10.377914,2.23518 14.044057,2.23518 2.108357,0 3.569219,-0.369159 4.462523,-1.12467 a 2.5979758,2.6296234 0 0 0 1.0272,-2.208884 3.4313265,3.4731256 0 0 0 -1.467856,-2.601304 z M 15.47353,48.767397 a 3.3573841,3.3982825 0 0 1 -1.09115,0.191153 2.6119649,2.6437829 0 0 1 -2.328186,-1.314812 2.9447056,2.9805769 0 0 1 0.23082,-3.044294 c 0.540579,-0.886993 2.264236,-1.935808 7.347276,-2.022788 -1.04019,3.486274 -2.440099,5.565699 -4.15876,6.190741 z M 18.801937,7.6957138 a 4.796263,4.8546893 0 0 1 0.835349,-0.080911 1.7266547,1.7476881 0 0 1 1.498832,0.6240298 2.4051261,2.4344244 0 0 1 -0.119907,2.2351794 c -1.307981,2.775264 -6.04529,4.779846 -9.992214,5.096412 1.946483,-4.213465 5.013094,-7.3406939 7.77794,-7.8747102 z"
     inkscape:connector-curvature="0"
     style="fill:#ffffff;fill-rule:evenodd;stroke-width:0.99999994" />
</svg>
