<?xml version="1.0" encoding="UTF-8" standalone="no"?>
<svg
   xmlns:dc="http://purl.org/dc/elements/1.1/"
   xmlns:cc="http://creativecommons.org/ns#"
   xmlns:rdf="http://www.w3.org/1999/02/22-rdf-syntax-ns#"
   xmlns:svg="http://www.w3.org/2000/svg"
   xmlns="http://www.w3.org/2000/svg"
   xmlns:sodipodi="http://sodipodi.sourceforge.net/DTD/sodipodi-0.dtd"
   xmlns:inkscape="http://www.inkscape.org/namespaces/inkscape"
   inkscape:version="0.92.1 r"
   sodipodi:docname="pin.svg"
   id="svg4"
   version="1.1"
   viewBox="0 0 80 140"
   width="80"
   height="140">
  <metadata
     id="metadata10">
    <rdf:RDF>
      <cc:Work
         rdf:about="">
        <dc:format>image/svg+xml</dc:format>
        <dc:type
           rdf:resource="http://purl.org/dc/dcmitype/StillImage" />
        <dc:title></dc:title>
      </cc:Work>
    </rdf:RDF>
  </metadata>
  <defs
     id="defs8" />
  <sodipodi:namedview
     inkscape:snap-others="false"
     inkscape:current-layer="svg4"
     inkscape:cy="91.370053"
     inkscape:cx="4.1474462"
     inkscape:zoom="4.8108743"
     inkscape:snap-center="true"
     inkscape:snap-object-midpoints="true"
     inkscape:snap-midpoints="true"
     inkscape:snap-smooth-nodes="true"
     inkscape:snap-intersection-paths="true"
     inkscape:snap-nodes="false"
     inkscape:object-paths="true"
     inkscape:snap-bbox-midpoints="true"
     inkscape:snap-bbox-edge-midpoints="true"
     inkscape:bbox-nodes="true"
     inkscape:bbox-paths="true"
     inkscape:snap-bbox="false"
     showgrid="false"
     id="namedview6"
     inkscape:window-height="480"
     inkscape:window-width="640"
     inkscape:pageshadow="2"
     inkscape:pageopacity="0"
     guidetolerance="10"
     gridtolerance="10"
     objecttolerance="10"
     borderopacity="1"
     bordercolor="#666666"
     pagecolor="#ffffff"
     fit-margin-top="0"
     fit-margin-left="0"
     fit-margin-right="0"
     fit-margin-bottom="0" />
  <path
     d="M 57.299706,75.018608 56.233603,76.08851 53.34772,73.211886 a 19.678785,19.581225 0 0 1 -1.699071,-1.160742 19.111751,19.017003 0 0 1 -5.096197,5.167828 18.727305,18.634463 0 0 1 -4.602197,2.291205 l -1.972952,1.968216 -1.195942,-1.191023 a 19.701101,19.603431 0 0 1 -2.902113,0.222055 q -0.550804,0 -1.096534,-0.03028 l 3.099915,3.078492 -3.324092,3.31064 -3.325105,-3.31064 3.128318,-3.108772 A 18.956553,18.862574 0 0 1 30.811454,79.81298 l -1.672698,1.665413 -3.324091,-3.31064 0.353001,-0.353269 a 18.976841,18.882761 0 0 1 -2.443619,-1.736068 v 0.01009 l -0.04159,-0.05047 a 18.889604,18.795957 0 0 1 -1.959763,-1.907656 16.137618,16.057614 0 0 1 -5.690617,1.715881 l 21.707529,61.529459 c 0.616737,1.74616 1.430262,2.62429 2.243787,2.62429 0.813525,0 1.622993,-0.87813 2.243787,-2.62429 L 63.901232,75.927008 c -0.240406,0.01009 -0.481827,0.02019 -0.724261,0.02019 a 18.675572,18.582986 0 0 1 -5.877262,-0.928594 m -6.484869,-0.161495 3.324091,3.31064 -3.324091,3.31064 -3.324092,-3.31064 m -2.094674,2.079244 3.324091,3.31064 -3.324091,3.31064 -3.325107,-3.31064 m -5.418766,16.179744 3.325105,-3.31064 3.324092,3.31064 -3.324092,3.310653 m 3.324092,7.46912 -3.324092,3.31064 -3.325105,-3.31064 3.325105,-3.30054 m 2.093661,-12.869117 3.325107,-3.31064 3.324091,3.31064 -3.324091,3.300547 m -5.418768,-12.00107 3.324092,3.300546 -3.324092,3.31064 -3.325105,-3.31064 m 1.230431,5.399977 -3.325106,3.300547 -3.324091,-3.300547 3.325105,-3.31064 m -11.168217,-10.456778 0.330684,-0.333082 3.325107,3.31064 -1.927304,1.917749 m 1.087405,3.088585 2.933559,-2.916997 3.324092,3.300546 -3.324092,3.31064 -2.510566,-2.493073 m 2.392899,6.782775 0.117667,-0.121121 3.324092,3.31064 -1.714286,1.705793 m 1.74066,4.93568 -0.652241,-1.84709 2.720541,-2.71513 3.325106,3.31064 -3.324092,3.31064 m 0.196789,4.36035 3.127303,3.11887 -1.502282,1.49382 m 3.596957,10.19435 -2.509552,-7.11585 2.509552,-2.49308 2.508538,2.49308 m 1.08842,-3.0785 -1.503297,-1.49382 3.128318,-3.11887 m 2.265088,-6.41941 -2.0683,2.05906 -3.325106,-3.31064 3.325106,-3.31064 2.720541,2.71513 m 1.088419,-3.08859 -1.714286,-1.705793 3.324092,-3.31064 0.117667,0.121121 m 2.393914,-6.782775 -2.511581,2.493073 -3.324092,-3.31064 3.324092,-3.300546 2.933559,2.916997 m 1.088419,-3.088585 -1.927304,-1.917749 3.324093,-3.31064 0.330684,0.333082 M 74.532844,44.81911 a 35.748439,35.571213 0 1 0 -68.0825087,2.997744 14.265091,14.19437 0 1 0 15.7369417,23.679152 16.89941,16.815629 0 0 0 13.67777,6.984643 16.846663,16.763144 0 0 0 14.938631,-9.023513 l 0.6776,-0.211962 A 16.838548,16.755069 0 1 0 74.532844,44.81911 M 63.156681,67.569667 a 10.384109,10.332629 0 0 1 -8.249874,-4.007085 3.1861373,3.1703417 0 0 0 -3.727811,-0.979062 28.129504,27.990049 0 0 1 -3.491463,1.170836 3.2084534,3.1925472 0 0 0 -2.124092,1.877376 10.459172,10.40732 0 0 1 -19.531701,-0.35327 3.1851229,3.1693323 0 0 0 -2.522739,-2.048963 2.5156384,2.5031669 0 0 0 -0.474725,-0.04037 3.1983096,3.1824537 0 0 0 -2.544041,1.261677 7.8816576,7.8425835 0 1 1 -8.895014,-12.122191 3.1972953,3.1814444 0 0 0 1.832968,-4.350262 29.367036,29.221446 0 1 1 54.405754,-3.038118 3.1891804,3.1733697 0 0 0 1.217243,3.633629 10.455115,10.403283 0 0 1 -5.894505,18.995807"
     id="path2"
     inkscape:connector-curvature="0"
     style="fill:#e84d37;fill-rule:evenodd;stroke-width:1" />
</svg>
