<?xml version="1.0" encoding="UTF-8" standalone="no"?>
<svg
   xmlns:dc="http://purl.org/dc/elements/1.1/"
   xmlns:cc="http://creativecommons.org/ns#"
   xmlns:rdf="http://www.w3.org/1999/02/22-rdf-syntax-ns#"
   xmlns:svg="http://www.w3.org/2000/svg"
   xmlns="http://www.w3.org/2000/svg"
   xmlns:sodipodi="http://sodipodi.sourceforge.net/DTD/sodipodi-0.dtd"
   xmlns:inkscape="http://www.inkscape.org/namespaces/inkscape"
   width="48"
   viewBox="0 0 48 48"
   version="1.1"
   id="svg4"
   sodipodi:docname="cow.svg"
   height="48"
   inkscape:version="0.92.1 r">
  <sodipodi:namedview
     pagecolor="#ffffff"
     bordercolor="#666666"
     borderopacity="1"
     objecttolerance="10"
     gridtolerance="10"
     guidetolerance="10"
     inkscape:pageopacity="0"
     inkscape:pageshadow="2"
     inkscape:window-width="640"
     inkscape:window-height="480"
     id="namedview6"
     showgrid="false"
     inkscape:measure-start="31.5104,22.4396"
     inkscape:measure-end="33.5323,22.4396"
     fit-margin-top="0"
     fit-margin-left="0"
     fit-margin-right="0"
     fit-margin-bottom="0"
     inkscape:zoom="45.254834"
     inkscape:cx="23.046798"
     inkscape:cy="30.034036"
     inkscape:current-layer="svg4"
     inkscape:pagecheckerboard="false">
    <inkscape:grid
       originy="0.00999635"
       originx="-0.017997671"
       id="grid4487"
       type="xygrid" />
  </sodipodi:namedview>
  <metadata
     id="metadata10">
    <rdf:RDF>
      <cc:Work
         rdf:about="">
        <dc:format>image/svg+xml</dc:format>
        <dc:type
           rdf:resource="http://purl.org/dc/dcmitype/StillImage" />
        <dc:title></dc:title>
      </cc:Work>
    </rdf:RDF>
  </metadata>
  <defs
     id="defs8" />
  <path
     id="path4521"
     style="fill:none;fill-rule:evenodd;stroke:#323232;stroke-width:2;stroke-linecap:butt;stroke-linejoin:miter;stroke-miterlimit:4;stroke-dasharray:none;stroke-opacity:1"
     d="m 47,24 a 23,23 0 0 1 -23,23 A 23,23 0 0 1 1,24 23,23 0 0 1 24,1 23,23 0 0 1 47,24 Z M 15.466728,18.804837 c -9.3096251,1.47688 -5.8131865,7.880086 0.100877,3.012899 0.229182,-0.789063 -0.857611,-1.288504 -0.327372,-2.278171 2.907263,-2.022032 4.071071,-2.886463 6.182036,-3.378306 -4.452921,-2.336984 -5.610676,-5.441473 -6.385186,-8.5517585 -1.241729,3.6765575 -1.860505,8.9239795 0.429645,11.1953365 z m 17.066545,0 c 9.309624,1.47688 5.813186,7.880086 -0.100877,3.012899 -0.229182,-0.789063 0.857611,-1.288504 0.327372,-2.278171 -2.907263,-2.022032 -4.071071,-2.886463 -6.182036,-3.378306 4.452921,-2.336984 5.610676,-5.441473 6.385186,-8.5517585 1.241729,3.6765575 1.860505,8.9239795 -0.429645,11.1953365 z M 17.248175,32.594075 C 14.421505,27.990003 12.98301,15.990003 24,15.990003 c 11.01699,0 9.578495,12 6.751825,16.604072 0.265165,0.575464 3.265164,7.395928 -6.751825,7.395928 -10.016989,0 -7.01699,-6.820464 -6.751825,-7.395928 z" />
</svg>
