<?xml version="1.0" encoding="utf-8"?>
<!DOCTYPE svg PUBLIC "-//W3C//DTD SVG 1.1//EN" "http://www.w3.org/Graphics/SVG/1.1/DTD/svg11.dtd">
<svg version="1.1" xmlns="http://www.w3.org/2000/svg" xmlns:xlink="http://www.w3.org/1999/xlink" x="0px" y="0px" width="64px" height="64px" viewBox="0 0 64 64" enable-background="new 0 0 64 64" xml:space="preserve">
  <path fill="#F1A62F" stroke="#642913" stroke-width="2" stroke-miterlimit="10" d="M13.667,26.898c-1.853,2.032-3.573,1.454-3.822-1.285L8.285,8.479c-0.249-2.739,1.627-4.123,4.17-3.075l10.504,4.328c2.542,1.048,3.107,3.567,1.254,5.6L13.667,26.898z"/>
  <path fill="#F1A62F" stroke="#642913" stroke-width="2" stroke-miterlimit="10" d="M49.415,26.495c1.754,2.118,3.484,1.621,3.847-1.105L55.51,8.457c0.362-2.726-1.421-4.097-3.962-3.046l-9.972,4.124c-2.541,1.051-3.186,3.644-1.432,5.762L49.415,26.495z"/>
  <ellipse transform="matrix(0.8248 0.5654 -0.5654 0.8248 19.3845 -21.0618)" fill="#D27611" cx="43.684" cy="20.753" rx="5.316" ry="10.997"/>
  <ellipse transform="matrix(0.8286 -0.5599 0.5599 0.8286 -8.2529 14.5562)" fill="#D27611" cx="19.642" cy="20.754" rx="5.316" ry="10.998"/>
  <path fill="none" stroke="#642913" stroke-width="2.5" stroke-miterlimit="10" d="M54.707,33.605c0.002-0.115,0.01-0.23,0.01-0.346c0-12.202-10.17-22.093-22.717-22.093c-12.545,0-22.716,9.891-22.716,22.093c0,0.115,0.007,0.229,0.009,0.346c-0.944,2.174-1.46,4.521-1.46,6.969c0,11.218,10.82,20.313,24.167,20.313c13.346,0,24.168-9.095,24.168-20.313C56.168,38.126,55.652,35.779,54.707,33.605z"/>
  <path fill="#F1A62F" stroke="#F19500" stroke-miterlimit="10" d="M53.772,33.678c0.001-0.109,0.009-0.221,0.009-0.33c0-11.7-9.751-21.184-21.782-21.184c-12.028,0-21.78,9.484-21.78,21.184c0,0.109,0.007,0.219,0.009,0.33c-0.905,2.086-1.4,4.336-1.4,6.682c0,10.756,10.375,19.477,23.172,19.477s23.174-8.721,23.174-19.477C55.173,38.014,54.679,35.764,53.772,33.678z"/>
  <path fill="#F19500" d="M37.316,54.351c0-1.868-2.38-3.383-5.316-3.383c-2.936,0-5.317,1.515-5.317,3.383s2.381,0,5.317,0C34.937,54.351,37.316,56.219,37.316,54.351z"/>
  <path fill="none" stroke="#F19500" stroke-linecap="round" stroke-width="2" stroke-miterlimit="10" d="M18.354,34.944c0,0,12.773-8.889,27.293,0"/>
  <line stroke="#F19500" stroke-width="2" stroke-miterlimit="10" x1="32" y1="38" x2="32" y2="43"/>
  <path fill="none" stroke="#471A03" stroke-linecap="round" stroke-width="2" stroke-miterlimit="10" d="M31.937,42.255c0,2.867-2.325,5.192-5.193,5.192s-5.192-2.325-5.192-5.192M42.449,42.255c0,2.867-2.324,5.192-5.192,5.192s-5.193-2.325-5.193-5.192"/>
  <path fill="#471A03" d="M36.076,34.904c0,1.868-3.181,3.382-4.076,3.382c-1.093,0-4.077-1.514-4.077-3.382c0-1.867,1.826-1.177,4.077-1.177C34.252,33.728,36.076,33.037,36.076,34.904z"/>
  <ellipse fill="#772603" cx="21.25" cy="28.561" rx="2.896" ry="3.996"/>
  <ellipse fill="#FFFFFF" cx="20.417" cy="26.964" rx="1.063" ry="1.597"/>
  <ellipse fill="#772603" cx="42.75" cy="28.561" rx="2.896" ry="3.996"/>
  <ellipse fill="#FFFFFF" cx="41.917" cy="26.964" rx="1.063" ry="1.597"/>
  <g stroke="#471A03" stroke-linecap="round" stroke-width="2" stroke-miterlimit="10">
    <line x1="1" y1="31.324" x2="15.215" y2="32.645"/>
    <line x1="1" y1="37.321" x2="15.021" y2="36.232"/>
    <line x1="1" y1="42.898" x2="15.554" y2="39.546"/>
    <line x1="63" y1="31.324" x2="48.785" y2="32.645"/>
    <line x1="63" y1="37.321" x2="48.979" y2="36.232"/>
    <line x1="63" y1="42.898" x2="48.446" y2="39.546"/>
  </g>
</svg>
