<?xml version="1.0" encoding="UTF-8" standalone="no"?>
<svg
   xmlns:dc="http://purl.org/dc/elements/1.1/"
   xmlns:cc="http://creativecommons.org/ns#"
   xmlns:rdf="http://www.w3.org/1999/02/22-rdf-syntax-ns#"
   xmlns:svg="http://www.w3.org/2000/svg"
   xmlns="http://www.w3.org/2000/svg"
   xmlns:sodipodi="http://sodipodi.sourceforge.net/DTD/sodipodi-0.dtd"
   xmlns:inkscape="http://www.inkscape.org/namespaces/inkscape"
   width="106"
   height="36"
   viewBox="0 0 106 36"
   version="1.1"
   id="svg3"
   sodipodi:docname="ha-logo.svg"
   inkscape:version="0.92.1 r">
  <metadata
     id="metadata9">
    <rdf:RDF>
      <cc:Work
         rdf:about="">
        <dc:format>image/svg+xml</dc:format>
        <dc:type
           rdf:resource="http://purl.org/dc/dcmitype/StillImage" />
        <dc:title></dc:title>
      </cc:Work>
    </rdf:RDF>
  </metadata>
  <defs
     id="defs7" />
  <sodipodi:namedview
     pagecolor="#ffffff"
     bordercolor="#666666"
     borderopacity="1"
     objecttolerance="10"
     gridtolerance="10"
     guidetolerance="10"
     inkscape:pageopacity="0"
     inkscape:pageshadow="2"
     inkscape:window-width="640"
     inkscape:window-height="480"
     id="namedview5"
     showgrid="false"
     inkscape:pagecheckerboard="false"
     inkscape:zoom="6.4322706"
     inkscape:cx="-0.99079797"
     inkscape:cy="18.344999"
     inkscape:current-layer="svg3" />
  <path
     id="Лого"
     d="m 43.58964,26.25409 a 1.9462377,1.9462377 0 0 0 0.539804,-0.09815 v 1.305344 a 3.1033806,3.1033806 0 0 1 -1.14831,0.206107 1.6321701,1.6321701 0 0 1 -1.629226,-0.952018 4.702181,4.702181 0 0 1 -3.071974,1.050164 2.5517993,2.5517993 0 0 1 -2.846237,-2.492912 c 0,-2.090512 1.933478,-2.728462 3.631406,-2.728462 a 10.706761,10.706761 0 0 1 2.119957,0.235551 V 22.49509 c 0,-1.02072 -0.745911,-1.737187 -2.139586,-1.737187 a 7.2,7.2 0 0 0 -2.934569,0.628136 v -1.65867 a 9.8548527,9.8548527 0 0 1 3.121047,-0.539804 c 2.306434,0 3.768811,1.099237 3.768811,3.562705 v 2.91494 a 0.52311886,0.52311886 0 0 0 0.588877,0.588877 M 37.298473,25.15485 a 1.3230098,1.3230098 0 0 0 1.521265,1.207197 3.3104689,3.3104689 0 0 0 2.365322,-0.971646 v -1.374043 a 9.7989094,9.7989094 0 0 0 -1.766631,-0.206107 c -1.030534,0 -2.119956,0.323882 -2.119956,1.344602 m 12.071974,-5.967285 a 4.827808,4.827808 0 0 1 2.512541,0.628136 v 1.658669 a 3.9837513,3.9837513 0 0 0 -2.257361,-0.677208 2.6862595,2.6862595 0 1 0 -0.02944,5.358778 4.9073064,4.9073064 0 0 0 2.375136,-0.628135 v 1.678299 a 6.1684841,6.1684841 0 0 1 -2.699018,0.559433 4.1142857,4.1142857 0 0 1 -4.396947,-4.220284 4.2202835,4.2202835 0 0 1 4.495093,-4.357688 m 11.89531,7.066522 a 1.9462377,1.9462377 0 0 0 0.539804,-0.09815 v 1.305344 a 3.1033806,3.1033806 0 0 1 -1.14831,0.206107 1.6321701,1.6321701 0 0 1 -1.629225,-0.952018 4.702181,4.702181 0 0 1 -3.071974,1.050164 2.5517993,2.5517993 0 0 1 -2.846238,-2.492912 c 0,-2.090512 1.933479,-2.728462 3.621592,-2.728462 a 10.805889,10.805889 0 0 1 2.129771,0.235551 V 22.49509 c 0,-1.02072 -0.755725,-1.737187 -2.139585,-1.737187 a 7.2,7.2 0 0 0 -2.934569,0.628136 v -1.65867 a 9.7998909,9.7998909 0 0 1 3.121046,-0.539804 c 2.306434,0 3.758997,1.099237 3.758997,3.562705 v 2.91494 a 0.52998909,0.52998909 0 0 0 0.598691,0.588877 M 54.974595,25.15485 a 1.3230098,1.3230098 0 0 0 1.521265,1.207197 3.3271537,3.3271537 0 0 0 2.365321,-0.971646 v -1.374046 a 9.9058887,9.9058887 0 0 0 -1.76663,-0.206107 c -1.040349,0 -2.119956,0.323882 -2.119956,1.344602 M 71.33555,15.673937 V 27.549618 H 69.716139 V 26.25409 a 3.8041439,3.8041439 0 0 1 -3.121047,1.51145 4.2968375,4.2968375 0 0 1 0,-8.577972 3.789422,3.789422 0 0 1 2.934569,1.266085 v -4.779716 z m -4.42639,5.103599 a 2.7049073,2.7049073 0 0 0 0,5.398037 2.8364231,2.8364231 0 0 0 2.600872,-1.717558 V 22.475464 A 2.851145,2.851145 0 0 0 66.90916,20.777536 m 10.315158,-1.589968 c 3.238822,0 4.357688,2.610687 3.837513,4.966194 h -6.124318 c 0.206107,1.462378 1.629226,2.070884 3.121047,2.070884 a 5.9241003,5.9241003 0 0 0 2.581243,-0.579062 v 1.560523 a 7.0586695,7.0586695 0 0 1 -2.924754,0.559433 c -2.492912,0 -4.612868,-1.423119 -4.612868,-4.288986 a 4.0760087,4.0760087 0 0 1 4.122137,-4.288986 m 0.08833,1.501636 a 2.2269356,2.2269356 0 0 0 -2.394765,2.110142 h 4.514722 a 1.92759,1.92759 0 0 0 -2.119957,-2.110142 m 5.59433,6.860414 V 19.40349 h 1.609596 v 1.02072 a 3.7354416,3.7354416 0 0 1 2.718648,-1.236642 2.7608506,2.7608506 0 0 1 2.541985,1.305344 4.02988,4.02988 0 0 1 2.846237,-1.305344 2.9856052,2.9856052 0 0 1 3.091603,3.268266 v 5.093784 h -1.815703 v -5.04471 a 1.5477644,1.5477644 0 0 0 -1.609596,-1.707743 2.7225736,2.7225736 0 0 0 -2.021811,1.099237 5.3577971,5.3577971 0 0 1 0.03926,0.559432 v 5.093784 h -1.815704 v -5.04471 a 1.5477644,1.5477644 0 0 0 -1.609596,-1.707743 2.8648855,2.8648855 0 0 0 -2.159215,1.25627 v 5.496183 z M 103.72377,19.40349 h 1.89422 l -3.81788,9.245365 c -0.8735,2.119956 -2.031628,2.836423 -3.268269,2.836423 a 4.993675,4.993675 0 0 1 -1.069793,-0.137404 v -1.550709 a 2.7353326,2.7353326 0 0 0 0.834243,0.12759 c 0.883315,0 1.540894,-0.628135 2.011999,-1.904035 l 0.17666,-0.402399 -3.866958,-8.214831 h 1.933479 l 2.748089,6.143947 z M 37.828462,1.4133046 V 6.0458019 A 3.7295529,3.7295529 0 0 1 40.458778,4.926936 3.1711014,3.1711014 0 0 1 43.815376,8.2540897 V 13.288986 H 41.999673 V 8.4896404 A 1.7666303,1.7666303 0 0 0 40.105452,6.5365325 2.8727372,2.8727372 0 0 0 37.828462,7.9007637 V 13.288986 H 36.012759 V 1.4133046 Z m 10.962923,0.8342421 v 2.9051254 h 2.954198 v 1.5899673 h -2.954198 v 3.7295526 c 0,1.069793 0.49073,1.423119 1.540894,1.423119 a 4.5225736,4.5225736 0 0 0 1.648855,-0.314068 v 1.560524 A 6.7720828,6.7720828 0 0 1 49.792475,13.495093 2.4919302,2.4919302 0 0 1 46.99531,10.815704 V 6.7426394 H 45.532933 V 5.1526721 H 46.99531 V 2.6892043 Z M 54.061832,13.288986 V 5.1526721 h 1.609596 V 6.1635772 A 3.7354416,3.7354416 0 0 1 58.390076,4.926936 2.7804798,2.7804798 0 0 1 60.932061,6.2322795 4.0730643,4.0730643 0 0 1 63.788113,4.926936 2.991494,2.991494 0 0 1 66.869901,8.2050167 V 13.288986 H 65.054198 V 8.2540897 a 1.5556161,1.5556161 0 0 0 -1.609596,-1.7175572 2.7314067,2.7314067 0 0 0 -2.021811,1.1090512 5.3577971,5.3577971 0 0 1 0.03926,0.559433 V 13.288986 H 59.646346 V 8.2540897 A 1.5556161,1.5556161 0 0 0 58.03675,6.5365325 2.8933479,2.8933479 0 0 0 55.877535,7.7928029 v 5.4961831 z m 15.467829,0 H 71.33555 V 1.4133046 H 69.529661 Z M 14.364667,0.01962959 14.215485,3.7329102e-7 0,1.4918215 V 27.549618 L 14.215485,36 28.435878,27.549618 V 1.4918215 Z M 26.571101,26.48964 14.215485,33.840785 1.8598691,26.48964 V 15.811342 l 12.3026169,7.321701 0.02061,1.324972 -8.4405671,-5.025081 -0.012759,1.295529 8.4739371,5.083969 0.02061,1.364231 -8.4709921,-5.034896 -0.011777,1.285714 8.4729551,5.093784 8.557361,-5.123228 v -1.285714 h -0.0098 v -4.210469 l 3.80807,-2.27699 V 26.48964 Z m -0.0098,-12.248636 -3.376227,1.992366 -1.560524,0.922574 -7.445365,-4.426391 -0.01276,1.285714 6.358888,3.788441 -0.05889,0.02944 -0.12759,0.07852 -0.912759,0.529989 -5.246892,-3.121047 -0.01276,1.285714 4.140785,2.473283 -0.971646,0.647764 -0.02944,0.01963 -3.126936,-1.845147 -0.01276,1.285714 2.050273,1.207198 -2.08855,1.25627 L 1.8863686,14.378408 14.145801,7.0076339 v 0 z m 0.0098,-1.295529 -12.422355,-7.3217015 v 0 L 1.8628135,12.93566 V 3.1701203 L 14.21843,1.8745914 26.574046,3.1701203 v 9.7753547 z"
     inkscape:connector-curvature="0"
     style="fill:#ffffff;fill-rule:evenodd;stroke-width:1" />
</svg>
