<?xml version="1.0" encoding="UTF-8" standalone="no"?>
<svg
   xmlns:dc="http://purl.org/dc/elements/1.1/"
   xmlns:cc="http://creativecommons.org/ns#"
   xmlns:rdf="http://www.w3.org/1999/02/22-rdf-syntax-ns#"
   xmlns:svg="http://www.w3.org/2000/svg"
   xmlns="http://www.w3.org/2000/svg"
   xmlns:sodipodi="http://sodipodi.sourceforge.net/DTD/sodipodi-0.dtd"
   xmlns:inkscape="http://www.inkscape.org/namespaces/inkscape"
   viewBox="0 0 32 32"
   version="1.1"
   id="svg4"
   sodipodi:docname="ig.svg"
   width="32"
   height="32"
   inkscape:version="0.92.1 r">
  <metadata
     id="metadata10">
    <rdf:RDF>
      <cc:Work
         rdf:about="">
        <dc:format>image/svg+xml</dc:format>
        <dc:type
           rdf:resource="http://purl.org/dc/dcmitype/StillImage" />
        <dc:title></dc:title>
      </cc:Work>
    </rdf:RDF>
  </metadata>
  <defs
     id="defs8" />
  <sodipodi:namedview
     pagecolor="#ffffff"
     bordercolor="#666666"
     borderopacity="1"
     objecttolerance="10"
     gridtolerance="10"
     guidetolerance="10"
     inkscape:pageopacity="0"
     inkscape:pageshadow="2"
     inkscape:window-width="640"
     inkscape:window-height="480"
     id="namedview6"
     showgrid="false"
     inkscape:pagecheckerboard="false"
     fit-margin-top="0"
     fit-margin-left="0"
     fit-margin-right="0"
     fit-margin-bottom="0"
     inkscape:snap-page="true"
     inkscape:zoom="15.027062"
     inkscape:cx="19.577761"
     inkscape:cy="16.590949"
     inkscape:current-layer="svg4" />
  <path
     d="M 32,32 H 0 V 0 h 32 z m -9.603059,-7.923518 c 0.984773,4e-6 1.782299,-0.799807 1.779477,-1.784576 V 9.7386876 C 24.17473,8.7574341 23.378195,7.9631818 22.396941,7.964309 H 9.827406 C 8.8461516,7.9631816 8.0496169,8.757434 8.0479287,9.7386876 V 22.291906 c -0.00282,0.984769 0.7947045,1.78458 1.7794773,1.784576 H 22.39898 m -1.403187,-9.279796 c 0.820887,3.176745 -1.577559,6.273711 -4.858636,6.273711 -3.281077,0 -5.679523,-3.096966 -4.858636,-6.273711 H 9.8712556 v 6.913958 c -5.669e-4,0.344183 0.2788904,0.623183 0.6230724,0.622052 h 11.278521 c 0.34458,0.0017 0.624662,-0.277468 0.624092,-0.622052 v -6.913958 h -1.407266 m -4.849968,-1.64181 c 4.162402,-0.312647 4.162402,6.104871 0,5.792224 -3.860046,-0.0014 -3.860046,-5.793659 0,-5.792224 m 3.773104,-3.3753981 h 1.901848 c 0.344417,-0.0017 0.624209,0.2776331 0.623072,0.6220521 v 1.896749 c 0.0011,0.344419 -0.278655,0.623754 -0.623072,0.622053 h -1.901848 c -0.344182,0.0011 -0.623639,-0.277869 -0.623072,-0.622053 V 10.40153 c -5.67e-4,-0.344183 0.27889,-0.6231829 0.623072,-0.6220521"
     id="path2"
     inkscape:connector-curvature="0"
     style="fill:#ffffff;fill-rule:evenodd;stroke-width:1"
     sodipodi:nodetypes="cccccccccccccccscccccccccccccccccccc" />
</svg>
