<?xml version="1.0" encoding="UTF-8" standalone="no"?>
<svg
   xmlns:dc="http://purl.org/dc/elements/1.1/"
   xmlns:cc="http://creativecommons.org/ns#"
   xmlns:rdf="http://www.w3.org/1999/02/22-rdf-syntax-ns#"
   xmlns:svg="http://www.w3.org/2000/svg"
   xmlns="http://www.w3.org/2000/svg"
   xmlns:sodipodi="http://sodipodi.sourceforge.net/DTD/sodipodi-0.dtd"
   xmlns:inkscape="http://www.inkscape.org/namespaces/inkscape"
   viewBox="0 0 32 32"
   version="1.1"
   id="svg4"
   sodipodi:docname="tw.svg"
   width="32"
   height="32"
   inkscape:version="0.92.1 r">
  <metadata
     id="metadata10">
    <rdf:RDF>
      <cc:Work
         rdf:about="">
        <dc:format>image/svg+xml</dc:format>
        <dc:type
           rdf:resource="http://purl.org/dc/dcmitype/StillImage" />
        <dc:title></dc:title>
      </cc:Work>
    </rdf:RDF>
  </metadata>
  <defs
     id="defs8" />
  <sodipodi:namedview
     pagecolor="#ffffff"
     bordercolor="#666666"
     borderopacity="1"
     objecttolerance="10"
     gridtolerance="10"
     guidetolerance="10"
     inkscape:pageopacity="0"
     inkscape:pageshadow="2"
     inkscape:window-width="640"
     inkscape:window-height="480"
     id="namedview6"
     showgrid="false"
     inkscape:pagecheckerboard="true"
     fit-margin-top="0"
     fit-margin-left="0"
     fit-margin-right="0"
     fit-margin-bottom="0"
     inkscape:snap-page="true"
     inkscape:zoom="42.50295"
     inkscape:cx="16.122401"
     inkscape:cy="11.806155"
     inkscape:current-layer="svg4" />
  <path
     id="svg_1"
     d="M 32,0 V 32 H 0 V 0 Z m -6.679414,11.023643 c -0.678379,0.298363 -1.397351,0.494197 -2.133333,0.581079 0.775371,-0.466299 1.35514,-1.198177 1.631612,-2.0596865 -0.72963,0.432932 -1.527044,0.7397245 -2.358699,0.9074725 C 19.859618,7.6847504 15.271823,10.138722 16.130529,13.838175 13.14236,13.690563 10.358395,12.277605 8.4752072,9.9528366 7.4895765,11.65238 7.9924115,13.825175 9.6244742,14.918924 9.0345211,14.8971 8.4580389,14.736398 7.9418738,14.449877 v 0.05104 c 0.00359,1.766833 1.2484733,3.287823 2.9797322,3.640606 -0.319311,0.08586 -0.648322,0.130367 -0.9789673,0.132446 -0.2345005,-0.0029 -0.4682745,-0.02671 -0.6985341,-0.0712 0.4851961,1.512843 1.8787164,2.5497 3.4671764,2.579773 -1.314975,1.0343 -2.9403875,1.594808 -4.6133842,1.590883 -0.2960798,-0.0015 -0.5918771,-0.01852 -0.8861695,-0.05104 7.0334227,4.513513 16.2739137,-0.545392 16.2610577,-8.902465 0,-0.163069 0,-0.315931 -0.01122,-0.479255 0.729717,-0.522241 1.359437,-1.171609 1.859018,-1.917023 z"
     inkscape:connector-curvature="0"
     style="fill:#ffffff;fill-rule:evenodd;stroke-width:1"
     sodipodi:nodetypes="cccccccccccccccccccccccc" />
</svg>
