<?xml version="1.0" encoding="UTF-8" standalone="no"?>
<svg
   xmlns:dc="http://purl.org/dc/elements/1.1/"
   xmlns:cc="http://creativecommons.org/ns#"
   xmlns:rdf="http://www.w3.org/1999/02/22-rdf-syntax-ns#"
   xmlns:svg="http://www.w3.org/2000/svg"
   xmlns="http://www.w3.org/2000/svg"
   xmlns:sodipodi="http://sodipodi.sourceforge.net/DTD/sodipodi-0.dtd"
   xmlns:inkscape="http://www.inkscape.org/namespaces/inkscape"
   viewBox="0 0 32 32"
   version="1.1"
   id="svg4"
   sodipodi:docname="vk.svg"
   width="32"
   height="32"
   inkscape:version="0.92.1 r">
  <metadata
     id="metadata10">
    <rdf:RDF>
      <cc:Work
         rdf:about="">
        <dc:format>image/svg+xml</dc:format>
        <dc:type
           rdf:resource="http://purl.org/dc/dcmitype/StillImage" />
        <dc:title></dc:title>
      </cc:Work>
    </rdf:RDF>
  </metadata>
  <defs
     id="defs8" />
  <sodipodi:namedview
     pagecolor="#ffffff"
     bordercolor="#666666"
     borderopacity="1"
     objecttolerance="10"
     gridtolerance="10"
     guidetolerance="10"
     inkscape:pageopacity="0"
     inkscape:pageshadow="2"
     inkscape:window-width="640"
     inkscape:window-height="480"
     id="namedview6"
     showgrid="false"
     inkscape:pagecheckerboard="false"
     fit-margin-top="0"
     fit-margin-left="0"
     fit-margin-right="0"
     fit-margin-bottom="0"
     inkscape:snap-page="true"
     inkscape:zoom="30.054123"
     inkscape:cx="10.621798"
     inkscape:cy="18.102243"
     inkscape:current-layer="svg4" />
  <path
     d="M 32,32 H 0 V 0 H 32 Z M 22.086935,18.610581 c 0.04371,-0.819684 -0.233128,-1.62423 -0.771957,-2.243468 -0.550366,-0.578755 -1.270185,-0.967943 -2.055832,-1.111536 v -0.07138 c 0.577236,-0.229919 1.066715,-0.636927 1.398088,-1.162527 0.342325,-0.539068 0.519557,-1.166467 0.509879,-1.804971 0.0098,-0.539562 -0.117168,-1.072823 -0.369152,-1.550032 -0.256406,-0.459391 -0.643685,-0.8321154 -1.112556,-1.0707453 -0.460301,-0.2453868 -0.9589,-0.4108968 -1.47457,-0.4894838 -0.768144,-0.08609 -1.540961,-0.123556 -2.31383,-0.1121733 H 11.002167 V 22.852773 h 5.545443 c 0.800463,0.02019 1.600082,-0.06553 2.378076,-0.254939 0.625799,-0.17489 1.210345,-0.473057 1.719311,-0.876992 0.443453,-0.347341 0.803122,-0.789957 1.05239,-1.295093 0.27125,-0.565879 0.405069,-1.187804 0.390567,-1.815168 m -4.4594,-5.700447 c -0.0041,-0.237971 -0.0631,-0.471781 -0.172339,-0.683237 -0.108888,-0.231318 -0.300693,-0.413296 -0.537413,-0.509879 -0.258034,-0.110415 -0.53517,-0.169307 -0.815806,-0.173359 -0.314085,0 -0.781135,-0.0102 -1.401147,-0.0102 h -0.241683 v 2.936903 h 0.438496 c 0.594519,0 1.013639,-0.0102 1.252263,-0.0204 0.256971,-0.01822 0.508339,-0.08391 0.741363,-0.193754 0.249025,-0.106965 0.45233,-0.298354 0.574124,-0.540472 0.110327,-0.254009 0.164921,-0.528717 0.160102,-0.805609 m 0.874952,5.639261 c 0.02078,-0.355409 -0.07015,-0.708415 -0.260038,-1.00956 -0.196776,-0.260772 -0.470303,-0.453346 -0.782154,-0.550669 -0.280796,-0.09127 -0.574618,-0.136051 -0.869854,-0.132569 -0.369152,-0.0102 -0.865774,-0.0102 -1.484767,-0.0102 h -0.642447 v 3.467176 h 0.187635 c 0.905545,0 1.529637,-0.0102 1.878394,-0.0204 0.366064,-0.01435 0.726171,-0.09737 1.061568,-0.244742 0.291861,-0.117465 0.535984,-0.329278 0.693435,-0.601657 0.147486,-0.275851 0.222571,-0.584613 0.218228,-0.897387"
     id="path2"
     inkscape:connector-curvature="0"
     style="fill:#ffffff;fill-rule:evenodd;stroke-width:1"
     sodipodi:nodetypes="ccccccccccccccccccccccccccsccsccccccccsccscccc" />
</svg>
